<!DOCTYPE svg PUBLIC "-//W3C//DTD SVG 1.1//EN" "http://www.w3.org/Graphics/SVG/1.1/DTD/svg11.dtd">

<svg width="800px" height="800px" viewBox="-2.4 -2.4 28.80 28.80" fill="none" xmlns="http://www.w3.org/2000/svg" stroke="#333333" stroke-width="0.00024000000000000003" transform="matrix(1, 0, 0, 1, 0, 0)">

<g id="SVGRepo_bgCarrier" stroke-width="0" transform="translate(4.800000000000001,4.800000000000001), scale(0.6)">

<rect x="-2.4" y="-2.4" width="28.80" height="28.80" rx="14.4" fill="#f9f4f4" strokewidth="0"/>

</g>

<g id="SVGRepo_tracerCarrier" stroke-linecap="round" stroke-linejoin="round" stroke="#333333" stroke-width="0.144"/>

<g id="SVGRepo_iconCarrier"> <path fill-rule="evenodd" clip-rule="evenodd" d="M3 12C3 7.02944 7.02944 3 12 3C16.9706 3 21 7.02944 21 12C21 16.9706 16.9706 21 12 21C7.02944 21 3 16.9706 3 12ZM5.07089 13C5.55612 16.3923 8.47353 19 12 19C15.5265 19 18.4439 16.3923 18.9291 13H14.8293C14.4174 14.1652 13.3062 15 12 15C10.6938 15 9.58251 14.1652 9.17068 13H5.07089ZM18.9291 11C18.4439 7.60771 15.5265 5 12 5C8.47353 5 5.55612 7.60771 5.07089 11H9.17068C9.58251 9.83481 10.6938 9 12 9C13.3062 9 14.4174 9.83481 14.8293 11H18.9291ZM12 13C12.5523 13 13 12.5523 13 12C13 11.4477 12.5523 11 12 11C11.4477 11 11 11.4477 11 12C11 12.5523 11.4477 13 12 13Z" fill="#333333"/> </g>

</svg>